<?xml version="1.0" encoding="UTF-8"?>
<svg height="128px" viewBox="0 0 128 128" width="128px" xmlns="http://www.w3.org/2000/svg" xmlns:xlink="http://www.w3.org/1999/xlink">
    <linearGradient id="a" gradientUnits="userSpaceOnUse" spreadMethod="reflect" x1="19.941505" x2="107.941505" y1="65.982803" y2="65.982803">
        <stop offset="0" stop-color="#544423"/>
        <stop offset="0.0454546" stop-color="#92763e"/>
        <stop offset="0.0909091" stop-color="#544423"/>
        <stop offset="0.909091" stop-color="#544423"/>
        <stop offset="0.954186" stop-color="#92763e"/>
        <stop offset="1" stop-color="#544423"/>
    </linearGradient>
    <radialGradient id="b" cx="92.26188492554" cy="235.4666709864" gradientUnits="userSpaceOnUse" r="6.42210705137">
        <stop offset="0" stop-color="#d8bc9e"/>
        <stop offset="0.260085" stop-color="#ceb290"/>
        <stop offset="0.431359" stop-color="#c5a983"/>
        <stop offset="0.761154" stop-color="#b89c70"/>
    </radialGradient>
    <radialGradient id="c" cx="92.26188492554" cy="235.4666709864" gradientUnits="userSpaceOnUse" r="6.42210705137">
        <stop offset="0.0566222" stop-color="#505050"/>
        <stop offset="0.416339" stop-color="#303030"/>
        <stop offset="0.761154" stop-color="#202020"/>
    </radialGradient>
    <path d="m 27.941406 61.984375 h 72 c 4.417969 0 8 3.582031 8 8 v 42 c 0 4.417969 -3.582031 8 -8 8 h -72 c -4.417968 0 -8 -3.582031 -8 -8 v -42 c 0 -4.417969 3.582032 -8 8 -8 z m 0 0" fill="url(#a)"/>
    <path d="m 27.941406 7.984375 h 72 c 4.417969 0 8 3.582031 8 8 v 92 c 0 4.417969 -3.582031 8 -8 8 h -72 c -4.417968 0 -8 -3.582031 -8 -8 v -92 c 0 -4.417969 3.582032 -8 8 -8 z m 0 0" fill="#7b6533"/>
    <path d="m 27.941406 13.984375 h 72 c 2.210938 0 4 1.789063 4 4 v 90 c 0 2.207031 -1.789062 4 -4 4 h -72 c -2.210937 0 -4 -1.792969 -4 -4 v -90 c 0 -2.210937 1.789063 -4 4 -4 z m 0 0" fill="#eccc75"/>
    <path d="m 27.941406 12.042969 h 72 c 2.210938 0 4 1.824219 4 4.078125 v 91.765625 c 0 2.253906 -1.789062 4.078125 -4 4.078125 h -72 c -2.210937 0 -4 -1.824219 -4 -4.078125 v -91.765625 c 0 -2.253906 1.789063 -4.078125 4 -4.078125 z m 0 0" fill="#c4ac78"/>
    <path d="m 98.685162 235.464722 c 0 3.546875 -2.875 6.425781 -6.421875 6.425781 s -6.421875 -2.878906 -6.421875 -6.425781 c 0 -3.542969 2.875 -6.421875 6.421875 -6.421875 s 6.421875 2.878906 6.421875 6.421875 z m 0 0" fill="url(#b)" stroke="#ffffff" stroke-width="0.02" transform="matrix(1 0 0 1 -57.255474 -173.925659)"/>
    <path d="m 98.685162 235.465145 c 0 3.546875 -2.875 6.421875 -6.421875 6.421875 s -6.421875 -2.875 -6.421875 -6.421875 s 2.875 -6.421875 6.421875 -6.421875 s 6.421875 2.875 6.421875 6.421875 z m 0 0" fill="url(#b)" stroke="#ffffff" stroke-width="0.02" transform="matrix(1 0 0 1 -57.255474 -184.086239)"/>
    <path d="m 98.685005 235.46858 c 0 3.542969 -2.875 6.421875 -6.421875 6.421875 s -6.421875 -2.878906 -6.421875 -6.421875 c 0 -3.546875 2.875 -6.425781 6.421875 -6.425781 s 6.421875 2.878906 6.421875 6.425781 z m 0 0" fill="url(#b)" stroke="#ffffff" stroke-width="0.02" transform="matrix(1 0 0 1 -57.091255 -193.648268)"/>
    <path d="m 98.684292 235.466221 c 0 3.546875 -2.875 6.421875 -6.421875 6.421875 s -6.421875 -2.875 -6.421875 -6.421875 s 2.875 -6.421875 6.421875 -6.421875 s 6.421875 2.875 6.421875 6.421875 z m 0 0" fill="url(#b)" stroke="#ffffff" stroke-width="0.02" transform="matrix(1 0 0 1 -57.098354 -203.235752)"/>
    <path d="m 98.684292 235.465126 c 0 3.546875 -2.875 6.421875 -6.421875 6.421875 s -6.421875 -2.875 -6.421875 -6.421875 s 2.875 -6.421875 6.421875 -6.421875 s 6.421875 2.875 6.421875 6.421875 z m 0 0" fill="url(#b)" stroke="#ffffff" stroke-width="0.02" transform="matrix(1 0 0 1 -57.098354 -212.785439)"/>
    <path d="m 98.683691 235.464962 c 0 3.546875 -2.875 6.421875 -6.421875 6.421875 s -6.421875 -2.875 -6.421875 -6.421875 s 2.875 -6.421875 6.421875 -6.421875 s 6.421875 2.875 6.421875 6.421875 z m 0 0" fill="url(#c)" stroke="#ffffff" stroke-width="0.02" transform="matrix(1 0 0 1 -0.109472 -135.078243)"/>
    <path d="m 98.684003 235.467723 c 0 3.546875 -2.875 6.421875 -6.421875 6.421875 s -6.421875 -2.875 -6.421875 -6.421875 s 2.875 -6.421875 6.421875 -6.421875 s 6.421875 2.875 6.421875 6.421875 z m 0 0" fill="url(#c)" stroke="#ffffff" stroke-width="0.02" transform="matrix(1 0 0 1 -0.129315 -144.647411)"/>
    <path d="m 98.685064 235.467865 c 0 3.546875 -2.875 6.421875 -6.421875 6.421875 s -6.421875 -2.875 -6.421875 -6.421875 s 2.875 -6.421875 6.421875 -6.421875 s 6.421875 2.875 6.421875 6.421875 z m 0 0" fill="url(#c)" stroke="#ffffff" stroke-width="0.02" transform="matrix(1 0 0 1 -0.138189 -154.213958)"/>
    <path d="m 98.683976 235.465251 c 0 3.546875 -2.875 6.421875 -6.421875 6.421875 s -6.421875 -2.875 -6.421875 -6.421875 s 2.875 -6.421875 6.421875 -6.421875 s 6.421875 2.875 6.421875 6.421875 z m 0 0" fill="url(#c)" stroke="#ffffff" stroke-width="0.02" transform="matrix(1 0 0 1 -0.078507 -163.762126)"/>
    <path d="m 98.683495 235.465412 c 0 3.546875 -2.875 6.421875 -6.421875 6.421875 s -6.421875 -2.875 -6.421875 -6.421875 s 2.875 -6.421875 6.421875 -6.421875 s 6.421875 2.875 6.421875 6.421875 z m 0 0" fill="url(#c)" stroke="#ffffff" stroke-width="0.02" transform="matrix(1 0 0 1 -0.058495 -173.324787)"/>
    <g fill="#ece8bb" fill-opacity="0.623529" stroke="#010101" stroke-width="0.1">
        <path d="m 49.023437 16.882812 h 6.996094 c 0.820312 0 1.488281 0.667969 1.488281 1.488281 v 7.367188 c 0 0.824219 -0.667969 1.492187 -1.488281 1.492187 h -6.996094 c -0.824219 0 -1.492187 -0.667968 -1.492187 -1.492187 v -7.367188 c 0 -0.820312 0.667968 -1.488281 1.492187 -1.488281 z m 0 0"/>
        <path d="m 59.996093 16.828125 h 6.996094 c 0.820313 0 1.488281 0.667968 1.488281 1.488281 v 7.367187 c 0 0.824219 -0.667968 1.492188 -1.488281 1.492188 h -6.996094 c -0.824218 0 -1.492187 -0.667969 -1.492187 -1.492188 v -7.367187 c 0 -0.820313 0.667969 -1.488281 1.492187 -1.488281 z m 0 0"/>
        <path d="m 71.046875 16.769531 h 6.992187 c 0.824219 0 1.492188 0.667969 1.492188 1.492187 v 7.367188 c 0 0.824219 -0.667969 1.488281 -1.492188 1.488281 h -6.992187 c -0.824219 0 -1.492188 -0.664062 -1.492188 -1.488281 v -7.367188 c 0 -0.824218 0.667969 -1.492187 1.492188 -1.492187 z m 0 0"/>
        <path d="m 48.941406 28.179687 h 6.996094 c 0.824218 0 1.492187 0.667969 1.492187 1.488281 v 7.367188 c 0 0.824219 -0.667969 1.492187 -1.492187 1.492187 h -6.996094 c -0.820313 0 -1.488281 -0.667968 -1.488281 -1.492187 v -7.367188 c 0 -0.820312 0.667968 -1.488281 1.488281 -1.488281 z m 0 0"/>
        <path d="m 59.917968 28.125 h 6.992188 c 0.824219 0 1.492187 0.667968 1.492187 1.488281 v 7.367187 c 0 0.824219 -0.667968 1.492188 -1.492187 1.492188 h -6.992188 c -0.824218 0 -1.492187 -0.667969 -1.492187 -1.492188 v -7.367187 c 0 -0.820313 0.667969 -1.488281 1.492187 -1.488281 z m 0 0"/>
        <path d="m 70.964843 28.066406 h 6.996094 c 0.824219 0 1.488281 0.667969 1.488281 1.492187 v 7.367188 c 0 0.824219 -0.664062 1.488281 -1.488281 1.488281 h -6.996094 c -0.824218 0 -1.488281 -0.664062 -1.488281 -1.488281 v -7.367188 c 0 -0.824218 0.664063 -1.492187 1.488281 -1.492187 z m 0 0"/>
        <path d="m 49.019531 39.574218 h 6.996094 c 0.820312 0 1.488281 0.667969 1.488281 1.492188 v 7.367187 c 0 0.820313 -0.667969 1.488282 -1.488281 1.488282 h -6.996094 c -0.824219 0 -1.492188 -0.667969 -1.492188 -1.488282 v -7.367187 c 0 -0.824219 0.667969 -1.492188 1.492188 -1.492188 z m 0 0"/>
        <path d="m 59.992187 39.519531 h 6.996094 c 0.824219 0 1.488281 0.667969 1.488281 1.492187 v 7.367188 c 0 0.820312 -0.664062 1.488281 -1.488281 1.488281 h -6.996094 c -0.820312 0 -1.488281 -0.667969 -1.488281 -1.488281 v -7.367188 c 0 -0.824218 0.667969 -1.492187 1.488281 -1.492187 z m 0 0"/>
        <path d="m 71.042968 39.460937 h 6.996094 c 0.820313 0 1.488281 0.667969 1.488281 1.492188 v 7.367187 c 0 0.824219 -0.667968 1.492188 -1.488281 1.492188 h -6.996094 c -0.824218 0 -1.492187 -0.667969 -1.492187 -1.492188 v -7.367187 c 0 -0.824219 0.667969 -1.492188 1.492187 -1.492188 z m 0 0"/>
        <path d="m 49.121093 50.648437 h 6.996094 c 0.824219 0 1.488281 0.667969 1.488281 1.492188 v 7.367187 c 0 0.824219 -0.664062 1.488281 -1.488281 1.488281 h -6.996094 c -0.824218 0 -1.488281 -0.664062 -1.488281 -1.488281 v -7.367187 c 0 -0.824219 0.664063 -1.492188 1.488281 -1.492188 z m 0 0"/>
        <path d="m 60.09375 50.59375 h 6.996093 c 0.824219 0 1.492188 0.667968 1.492188 1.492187 v 7.367188 c 0 0.824218 -0.667969 1.488281 -1.492188 1.488281 h -6.996093 c -0.820313 0 -1.488282 -0.664063 -1.488282 -1.488281 v -7.367188 c 0 -0.824219 0.667969 -1.492187 1.488282 -1.492187 z m 0 0"/>
        <path d="m 71.144531 50.539062 h 6.996094 c 0.820312 0 1.488281 0.667969 1.488281 1.488281 v 7.367188 c 0 0.824219 -0.667969 1.492187 -1.488281 1.492187 h -6.996094 c -0.824219 0 -1.492188 -0.667968 -1.492188 -1.492187 v -7.367188 c 0 -0.820312 0.667969 -1.488281 1.492188 -1.488281 z m 0 0"/>
        <path d="m 60.015625 61.890625 h 6.996093 c 0.820313 0 1.488282 0.667968 1.488282 1.492187 v 7.367188 c 0 0.824218 -0.667969 1.488281 -1.488282 1.488281 h -6.996093 c -0.824219 0 -1.492188 -0.664063 -1.492188 -1.488281 v -7.367188 c 0 -0.824219 0.667969 -1.492187 1.492188 -1.492187 z m 0 0"/>
        <path d="m 60.09375 73.289062 h 6.992187 c 0.824219 0 1.492188 0.664063 1.492188 1.488281 v 7.367188 c 0 0.824219 -0.667969 1.492187 -1.492188 1.492187 h -6.992187 c -0.824219 0 -1.492188 -0.667968 -1.492188 -1.492187 v -7.367188 c 0 -0.824218 0.667969 -1.488281 1.492188 -1.488281 z m 0 0"/>
        <path d="m 49.101562 84.8125 h 6.996094 c 0.824219 0 1.488281 0.667968 1.488281 1.492187 v 7.367188 c 0 0.820312 -0.664062 1.488281 -1.488281 1.488281 h -6.996094 c -0.824219 0 -1.488281 -0.667969 -1.488281 -1.488281 v -7.367188 c 0 -0.824219 0.664062 -1.492187 1.488281 -1.492187 z m 0 0"/>
        <path d="m 60.074218 84.757812 h 6.996094 c 0.824219 0 1.492188 0.667969 1.492188 1.492188 v 7.367187 c 0 0.820313 -0.667969 1.488281 -1.492188 1.488281 h -6.996094 c -0.820312 0 -1.488281 -0.667968 -1.488281 -1.488281 v -7.367187 c 0 -0.824219 0.667969 -1.492188 1.488281 -1.492188 z m 0 0"/>
        <path d="m 71.125 84.703125 h 6.996093 c 0.820313 0 1.488282 0.664062 1.488282 1.488281 v 7.367187 c 0 0.824219 -0.667969 1.492188 -1.488282 1.492188 h -6.996093 c -0.824219 0 -1.492188 -0.667969 -1.492188 -1.492188 v -7.367187 c 0 -0.824219 0.667969 -1.488281 1.492188 -1.488281 z m 0 0"/>
        <path d="m 49.023437 96.109375 h 6.992188 c 0.824218 0 1.492187 0.667968 1.492187 1.492187 v 7.367188 c 0 0.820312 -0.667969 1.488281 -1.492187 1.488281 h -6.992188 c -0.824219 0 -1.492187 -0.667969 -1.492187 -1.488281 v -7.367188 c 0 -0.824219 0.667968 -1.492187 1.492187 -1.492187 z m 0 0"/>
        <path d="m 59.996093 96.054687 h 6.996094 c 0.820313 0 1.488281 0.667969 1.488281 1.492188 v 7.367187 c 0 0.820313 -0.667968 1.488281 -1.488281 1.488281 h -6.996094 c -0.824218 0 -1.492187 -0.667968 -1.492187 -1.488281 v -7.367187 c 0 -0.824219 0.667969 -1.492188 1.492187 -1.492188 z m 0 0"/>
        <path d="m 71.046875 95.996093 h 6.992187 c 0.824219 0 1.492188 0.667969 1.492188 1.492188 v 7.367187 c 0 0.824219 -0.667969 1.492188 -1.492188 1.492188 h -6.992187 c -0.824219 0 -1.492188 -0.667969 -1.492188 -1.492188 v -7.367187 c 0 -0.824219 0.667969 -1.492188 1.492188 -1.492188 z m 0 0"/>
    </g>
</svg>
