<?xml version="1.0" encoding="UTF-8"?>
<svg height="128px" viewBox="0 0 128 128" width="128px" xmlns="http://www.w3.org/2000/svg" xmlns:xlink="http://www.w3.org/1999/xlink">
    <linearGradient id="a" gradientUnits="userSpaceOnUse" spreadMethod="reflect" x1="19.941505" x2="107.941505" y1="65.982803" y2="65.982803">
        <stop offset="0" stop-color="#9e8011"/>
        <stop offset="0.0454546" stop-color="#cbad61"/>
        <stop offset="0.0909091" stop-color="#9e8011"/>
        <stop offset="0.909091" stop-color="#9e8011"/>
        <stop offset="0.954545" stop-color="#cbad61"/>
        <stop offset="1" stop-color="#9e8011"/>
    </linearGradient>
    <linearGradient id="b" gradientUnits="userSpaceOnUse">
        <stop offset="0.214024" stop-color="#ac1517"/>
        <stop offset="0.849323" stop-color="#de4646"/>
    </linearGradient>
    <radialGradient id="c" cx="-25.043093" cy="205.272034" gradientTransform="matrix(-0.816306 0 0 -0.816306 14.650332 227.166977)" r="7.867279" xlink:href="#b"/>
    <radialGradient id="d" cx="-25.043093" cy="205.272034" gradientTransform="matrix(-0.816306 0 0 -0.816306 14.711154 217.742966)" r="7.867279" xlink:href="#b"/>
    <radialGradient id="e" cx="-25.043093" cy="205.272034" gradientTransform="matrix(-0.816306 0 0 -0.816306 14.727266 209.104843)" r="7.867279" xlink:href="#b"/>
    <radialGradient id="f" cx="-25.043093" cy="205.272034" gradientTransform="matrix(-0.816306 0 0 -0.816306 14.727265 199.482834)" r="7.867279" xlink:href="#b"/>
    <radialGradient id="g" cx="-25.043093" cy="205.272034" gradientTransform="matrix(-0.816306 0 0 -0.816306 14.719209 190.23082)" r="7.867279" xlink:href="#b"/>
    <linearGradient id="h" gradientUnits="userSpaceOnUse">
        <stop offset="0.214024" stop-color="#4f46e4"/>
        <stop offset="0.849323" stop-color="#5282d8"/>
    </linearGradient>
    <radialGradient id="i" cx="92.20736492554" cy="63.4550669864" r="6.42210705137" xlink:href="#h"/>
    <radialGradient id="j" cx="92.20333692554" cy="72.8776969864" r="6.42210705137" xlink:href="#h"/>
    <radialGradient id="k" cx="92.11863492554" cy="81.5407299864" r="6.42210705137" xlink:href="#h"/>
    <radialGradient id="l" cx="92.12335792554" cy="91.1305049864" r="6.42210705137" xlink:href="#h"/>
    <radialGradient id="m" cx="92.12671492554" cy="100.3739059864" r="6.42210705137" xlink:href="#h"/>
    <path d="m 27.941406 61.984375 h 72 c 4.417969 0 8 3.582031 8 8 v 42 c 0 4.417969 -3.582031 8 -8 8 h -72 c -4.417968 0 -8 -3.582031 -8 -8 v -42 c 0 -4.417969 3.582032 -8 8 -8 z m 0 0" fill="url(#a)"/>
    <path d="m 27.941406 7.984375 h 72 c 4.417969 0 8 3.582031 8 8 v 92 c 0 4.417969 -3.582031 8 -8 8 h -72 c -4.417968 0 -8 -3.582031 -8 -8 v -92 c 0 -4.417969 3.582032 -8 8 -8 z m 0 0" fill="#d2a513"/>
    <path d="m 27.941406 13.984375 h 72 c 2.210938 0 4 1.789063 4 4 v 90 c 0 2.207031 -1.789062 4 -4 4 h -72 c -2.210937 0 -4 -1.792969 -4 -4 v -90 c 0 -2.210937 1.789063 -4 4 -4 z m 0 0" fill="#eccc75"/>
    <path d="m 27.941406 11.984375 h 72 c 2.210938 0 4 1.789063 4 4 v 90 c 0 2.207031 -1.789062 4 -4 4 h -72 c -2.210937 0 -4 -1.792969 -4 -4 v -90 c 0 -2.210937 1.789063 -4 4 -4 z m 0 0" fill="#eccc75"/>
    <g fill="#947624">
        <path d="m 49.023438 16.882812 h 6.996093 c 0.820313 0 1.488281 0.667969 1.488281 1.488282 v 7.367187 c 0 0.824219 -0.667968 1.492188 -1.488281 1.492188 h -6.996093 c -0.824219 0 -1.492188 -0.667969 -1.492188 -1.492188 v -7.367187 c 0 -0.820313 0.667969 -1.488282 1.492188 -1.488282 z m 0 0"/>
        <path d="m 59.996094 16.828125 h 6.996094 c 0.820312 0 1.488281 0.667969 1.488281 1.488281 v 7.367188 c 0 0.824218 -0.667969 1.492187 -1.488281 1.492187 h -6.996094 c -0.824219 0 -1.492188 -0.667969 -1.492188 -1.492187 v -7.367188 c 0 -0.820312 0.667969 -1.488281 1.492188 -1.488281 z m 0 0"/>
        <path d="m 71.046875 16.769531 h 6.992187 c 0.824219 0 1.492188 0.667969 1.492188 1.492188 v 7.367187 c 0 0.824219 -0.667969 1.488282 -1.492188 1.488282 h -6.992187 c -0.824219 0 -1.492187 -0.664063 -1.492187 -1.488282 v -7.367187 c 0 -0.824219 0.667968 -1.492188 1.492187 -1.492188 z m 0 0"/>
        <path d="m 48.941406 28.179688 h 6.996094 c 0.824219 0 1.492188 0.667968 1.492188 1.488281 v 7.367187 c 0 0.824219 -0.667969 1.492188 -1.492188 1.492188 h -6.996094 c -0.820312 0 -1.488281 -0.667969 -1.488281 -1.492188 v -7.367187 c 0 -0.820313 0.667969 -1.488281 1.488281 -1.488281 z m 0 0"/>
        <path d="m 59.917969 28.125 h 6.992187 c 0.824219 0 1.492188 0.667969 1.492188 1.488281 v 7.367188 c 0 0.824219 -0.667969 1.492187 -1.492188 1.492187 h -6.992187 c -0.824219 0 -1.492188 -0.667968 -1.492188 -1.492187 v -7.367188 c 0 -0.820312 0.667969 -1.488281 1.492188 -1.488281 z m 0 0"/>
        <path d="m 70.964844 28.066406 h 6.996094 c 0.824218 0 1.488281 0.667969 1.488281 1.492188 v 7.367187 c 0 0.824219 -0.664063 1.488281 -1.488281 1.488281 h -6.996094 c -0.824219 0 -1.488282 -0.664062 -1.488282 -1.488281 v -7.367187 c 0 -0.824219 0.664063 -1.492188 1.488282 -1.492188 z m 0 0"/>
        <path d="m 49.019531 39.574219 h 6.996094 c 0.820313 0 1.488281 0.667969 1.488281 1.492187 v 7.367188 c 0 0.820312 -0.667968 1.488281 -1.488281 1.488281 h -6.996094 c -0.824219 0 -1.492187 -0.667969 -1.492187 -1.488281 v -7.367188 c 0 -0.824218 0.667968 -1.492187 1.492187 -1.492187 z m 0 0"/>
        <path d="m 59.992188 39.519531 h 6.996093 c 0.824219 0 1.488281 0.667969 1.488281 1.492188 v 7.367187 c 0 0.820313 -0.664062 1.488282 -1.488281 1.488282 h -6.996093 c -0.820313 0 -1.488282 -0.667969 -1.488282 -1.488282 v -7.367187 c 0 -0.824219 0.667969 -1.492188 1.488282 -1.492188 z m 0 0"/>
        <path d="m 71.042969 39.460938 h 6.996093 c 0.820313 0 1.488282 0.667968 1.488282 1.492187 v 7.367187 c 0 0.824219 -0.667969 1.492188 -1.488282 1.492188 h -6.996093 c -0.824219 0 -1.492188 -0.667969 -1.492188 -1.492188 v -7.367187 c 0 -0.824219 0.667969 -1.492187 1.492188 -1.492187 z m 0 0"/>
        <path d="m 49.121094 50.648438 h 6.996094 c 0.824218 0 1.488281 0.667968 1.488281 1.492187 v 7.367187 c 0 0.824219 -0.664063 1.488282 -1.488281 1.488282 h -6.996094 c -0.824219 0 -1.488282 -0.664063 -1.488282 -1.488282 v -7.367187 c 0 -0.824219 0.664063 -1.492187 1.488282 -1.492187 z m 0 0"/>
        <path d="m 60.09375 50.59375 h 6.996094 c 0.824218 0 1.492187 0.667969 1.492187 1.492188 v 7.367187 c 0 0.824219 -0.667969 1.488281 -1.492187 1.488281 h -6.996094 c -0.820312 0 -1.488281 -0.664062 -1.488281 -1.488281 v -7.367187 c 0 -0.824219 0.667969 -1.492188 1.488281 -1.492188 z m 0 0"/>
        <path d="m 71.144531 50.539062 h 6.996094 c 0.820313 0 1.488281 0.667969 1.488281 1.488282 v 7.367187 c 0 0.824219 -0.667968 1.492188 -1.488281 1.492188 h -6.996094 c -0.824219 0 -1.492187 -0.667969 -1.492187 -1.492188 v -7.367187 c 0 -0.820313 0.667968 -1.488282 1.492187 -1.488282 z m 0 0"/>
        <path d="m 60.015625 61.890625 h 6.996094 c 0.820312 0 1.488281 0.667969 1.488281 1.492187 v 7.367188 c 0 0.824219 -0.667969 1.488281 -1.488281 1.488281 h -6.996094 c -0.824219 0 -1.492187 -0.664062 -1.492187 -1.488281 v -7.367188 c 0 -0.824218 0.667968 -1.492187 1.492187 -1.492187 z m 0 0"/>
        <path d="m 60.09375 73.289062 h 6.992188 c 0.824218 0 1.492187 0.664063 1.492187 1.488282 v 7.367187 c 0 0.824219 -0.667969 1.492188 -1.492187 1.492188 h -6.992188 c -0.824219 0 -1.492188 -0.667969 -1.492188 -1.492188 v -7.367187 c 0 -0.824219 0.667969 -1.488282 1.492188 -1.488282 z m 0 0"/>
        <path d="m 49.101562 84.8125 h 6.996094 c 0.824219 0 1.488282 0.667969 1.488282 1.492188 v 7.367187 c 0 0.820313 -0.664063 1.488281 -1.488282 1.488281 h -6.996094 c -0.824218 0 -1.488281 -0.667968 -1.488281 -1.488281 v -7.367187 c 0 -0.824219 0.664063 -1.492188 1.488281 -1.492188 z m 0 0"/>
        <path d="m 60.074219 84.757812 h 6.996093 c 0.824219 0 1.492188 0.667969 1.492188 1.492188 v 7.367188 c 0 0.820312 -0.667969 1.488281 -1.492188 1.488281 h -6.996093 c -0.820313 0 -1.488281 -0.667969 -1.488281 -1.488281 v -7.367188 c 0 -0.824219 0.667968 -1.492188 1.488281 -1.492188 z m 0 0"/>
        <path d="m 71.125 84.703125 h 6.996094 c 0.820312 0 1.488281 0.664063 1.488281 1.488281 v 7.367188 c 0 0.824218 -0.667969 1.492187 -1.488281 1.492187 h -6.996094 c -0.824219 0 -1.492188 -0.667969 -1.492188 -1.492187 v -7.367188 c 0 -0.824218 0.667969 -1.488281 1.492188 -1.488281 z m 0 0"/>
        <path d="m 49.023438 96.109375 h 6.992187 c 0.824219 0 1.492187 0.667969 1.492187 1.492187 v 7.367188 c 0 0.820312 -0.667968 1.488281 -1.492187 1.488281 h -6.992187 c -0.824219 0 -1.492188 -0.667969 -1.492188 -1.488281 v -7.367188 c 0 -0.824218 0.667969 -1.492187 1.492188 -1.492187 z m 0 0"/>
        <path d="m 59.996094 96.054688 h 6.996094 c 0.820312 0 1.488281 0.667968 1.488281 1.492187 v 7.367187 c 0 0.820313 -0.667969 1.488282 -1.488281 1.488282 h -6.996094 c -0.824219 0 -1.492188 -0.667969 -1.492188 -1.488282 v -7.367187 c 0 -0.824219 0.667969 -1.492187 1.492188 -1.492187 z m 0 0"/>
        <path d="m 71.046875 95.996094 h 6.992187 c 0.824219 0 1.492188 0.667968 1.492188 1.492187 v 7.367188 c 0 0.824219 -0.667969 1.492187 -1.492188 1.492187 h -6.992187 c -0.824219 0 -1.492187 -0.667968 -1.492187 -1.492187 v -7.367188 c 0 -0.824219 0.667968 -1.492187 1.492187 -1.492187 z m 0 0"/>
    </g>
    <path d="m 28.671875 59.601562 c 0 -3.546874 2.875 -6.421874 6.421875 -6.421874 s 6.421875 2.875 6.421875 6.421874 c 0 3.546876 -2.875 6.421876 -6.421875 6.421876 s -6.421875 -2.875 -6.421875 -6.421876 z m 0 0" fill="url(#c)"/>
    <path d="m 28.730469 50.179688 c 0 -3.546876 2.875 -6.421876 6.421875 -6.421876 s 6.421875 2.875 6.421875 6.421876 c 0 3.546874 -2.875 6.421874 -6.421875 6.421874 s -6.421875 -2.875 -6.421875 -6.421874 z m 0 0" fill="url(#d)"/>
    <path d="m 28.746094 41.539062 c 0 -3.546874 2.878906 -6.421874 6.425781 -6.421874 s 6.421875 2.875 6.421875 6.421874 c 0 3.546876 -2.875 6.421876 -6.421875 6.421876 s -6.425781 -2.875 -6.425781 -6.421876 z m 0 0" fill="url(#e)"/>
    <path d="m 28.746094 31.917969 c 0 -3.546875 2.878906 -6.421875 6.425781 -6.421875 s 6.421875 2.875 6.421875 6.421875 s -2.875 6.421875 -6.421875 6.421875 s -6.425781 -2.875 -6.425781 -6.421875 z m 0 0" fill="url(#f)"/>
    <path d="m 28.738281 22.667969 c 0 -3.546875 2.875 -6.425781 6.421875 -6.425781 s 6.425782 2.878906 6.425782 6.425781 s -2.878907 6.421875 -6.425782 6.421875 s -6.421875 -2.875 -6.421875 -6.421875 z m 0 0" fill="url(#g)"/>
    <path d="m 98.628906 63.453125 c 0 3.546875 -2.875 6.425781 -6.421875 6.425781 s -6.421875 -2.878906 -6.421875 -6.425781 c 0 -3.542969 2.875 -6.421875 6.421875 -6.421875 s 6.421875 2.878906 6.421875 6.421875 z m 0 0" fill="url(#i)"/>
    <path d="m 98.625 72.878906 c 0 3.546875 -2.875 6.421875 -6.421875 6.421875 s -6.421875 -2.875 -6.421875 -6.421875 s 2.875 -6.421875 6.421875 -6.421875 s 6.421875 2.875 6.421875 6.421875 z m 0 0" fill="url(#j)"/>
    <path d="m 98.539062 81.539062 c 0 3.546876 -2.875 6.421876 -6.421874 6.421876 c -3.546876 0 -6.421876 -2.875 -6.421876 -6.421876 c 0 -3.546874 2.875 -6.421874 6.421876 -6.421874 c 3.546874 0 6.421874 2.875 6.421874 6.421874 z m 0 0" fill="url(#k)"/>
    <path d="m 98.546875 91.128906 c 0 3.546875 -2.875 6.421875 -6.421875 6.421875 s -6.421875 -2.875 -6.421875 -6.421875 s 2.875 -6.421875 6.421875 -6.421875 s 6.421875 2.875 6.421875 6.421875 z m 0 0" fill="url(#l)"/>
    <path d="m 98.546875 100.375 c 0 3.546875 -2.875 6.421875 -6.421875 6.421875 s -6.421875 -2.875 -6.421875 -6.421875 s 2.875 -6.421875 6.421875 -6.421875 s 6.421875 2.875 6.421875 6.421875 z m 0 0" fill="url(#m)"/>
</svg>
